# xmcd
#
# Track frame offsets: 
#        150
#        73400
#        147105
#        220333
#
# Disc length: 3919 seconds
#
# Revision: 0
# Processed by: cddbd v1.5.2PL0 Copyright (c) Steve Scherf et al.
# Submitted via: ExactAudioCopy v0.99pb5
#
DISCID=400f4d04
DTITLE=The Beatles  - Beginning of the End Volume 1 - Disc 2.
DYEAR=1900
DGENRE=
TTITLE0=Nagra Tape Roll 5A
TTITLE1=Nagra Tape Roll 6A
TTITLE2=Nagra Tape Roll 7A
TTITLE3=Nagra Tape Roll 8A
EXTD=
EXTT0=
EXTT1=
EXTT2=
EXTT3=
PLAYORDER=
